
            <svg id="trend-chart" width="660" height="400" title="Stack Overflow Trends Chart" version="1.1" xmlns="http://www.w3.org/2000/svg"><g></g><g class="chart-area" transform="translate(100, 20)"><g transform="translate(0,300)" fill="none" font-size="10" font-family="sans-serif" text-anchor="middle"><path class="domain" stroke="#000" d="M0.5,6V0.5H410.5V6"></path><g class="tick" opacity="1" transform="translate(13.833004179488356,0)"><line stroke="#000" y2="6" x1="0.5" x2="0.5"></line><text fill="#000" y="9" x="0.5" dy="0.71em" style="font-size: 12px;">2009</text></g><g class="tick" opacity="1" transform="translate(46.824323703669684,0)"><line stroke="#000" y2="6" x1="0.5" x2="0.5"></line><text fill="#000" y="9" x="0.5" dy="0.71em" style="font-size: 12px;">2010</text></g><g class="tick" opacity="1" transform="translate(79.81564322785101,0)"><line stroke="#000" y2="6" x1="0.5" x2="0.5"></line><text fill="#000" y="9" x="0.5" dy="0.71em" style="font-size: 12px;">2011</text></g><g class="tick" opacity="1" transform="translate(112.80319661966656,0)"><line stroke="#000" y2="6" x1="0.5" x2="0.5"></line><text fill="#000" y="9" x="0.5" dy="0.71em" style="font-size: 12px;">2012</text></g><g class="tick" opacity="1" transform="translate(145.88490332062648,0)"><line stroke="#000" y2="6" x1="0.5" x2="0.5"></line><text fill="#000" y="9" x="0.5" dy="0.71em" style="font-size: 12px;">2013</text></g><g class="tick" opacity="1" transform="translate(178.87622284480778,0)"><line stroke="#000" y2="6" x1="0.5" x2="0.5"></line><text fill="#000" y="9" x="0.5" dy="0.71em" style="font-size: 12px;">2014</text></g><g class="tick" opacity="1" transform="translate(211.8713085013549,0)"><line stroke="#000" y2="6" x1="0.5" x2="0.5"></line><text fill="#000" y="9" x="0.5" dy="0.71em" style="font-size: 12px;">2015</text></g><g class="tick" opacity="1" transform="translate(244.86262802553622,0)"><line stroke="#000" y2="6" x1="0.5" x2="0.5"></line><text fill="#000" y="9" x="0.5" dy="0.71em" style="font-size: 12px;">2016</text></g><g class="tick" opacity="1" transform="translate(277.9443347264961,0)"><line stroke="#000" y2="6" x1="0.5" x2="0.5"></line><text fill="#000" y="9" x="0.5" dy="0.71em" style="font-size: 12px;">2017</text></g><g class="tick" opacity="1" transform="translate(310.93565425067743,0)"><line stroke="#000" y2="6" x1="0.5" x2="0.5"></line><text fill="#000" y="9" x="0.5" dy="0.71em" style="font-size: 12px;">2018</text></g><g class="tick" opacity="1" transform="translate(343.92697377485877,0)"><line stroke="#000" y2="6" x1="0.5" x2="0.5"></line><text fill="#000" y="9" x="0.5" dy="0.71em" style="font-size: 12px;">2019</text></g><g class="tick" opacity="1" transform="translate(376.9182932990401,0)"><line stroke="#000" y2="6" x1="0.5" x2="0.5"></line><text fill="#000" y="9" x="0.5" dy="0.71em" style="font-size: 12px;">2020</text></g><g class="tick" opacity="1" transform="translate(410,0)"><line stroke="#000" y2="6" x1="0.5" x2="0.5"></line><text fill="#000" y="9" x="0.5" dy="0.71em" style="font-size: 12px;">2021</text></g></g><g class="grid-lines" transform="translate(0,300)" fill="none" font-size="10" font-family="sans-serif" text-anchor="middle"><path class="domain" stroke="#000" d="M0.5,-300V0.5H410.5V-300"></path><g class="tick" opacity="1" transform="translate(13.833004179488356,0)"><line stroke="#000" y2="-300" x1="0.5" x2="0.5" style="stroke: #ccc; fill: none;"></line></g><g class="tick" opacity="1" transform="translate(46.824323703669684,0)"><line stroke="#000" y2="-300" x1="0.5" x2="0.5" style="stroke: #ccc; fill: none;"></line></g><g class="tick" opacity="1" transform="translate(79.81564322785101,0)"><line stroke="#000" y2="-300" x1="0.5" x2="0.5" style="stroke: #ccc; fill: none;"></line></g><g class="tick" opacity="1" transform="translate(112.80319661966656,0)"><line stroke="#000" y2="-300" x1="0.5" x2="0.5" style="stroke: #ccc; fill: none;"></line></g><g class="tick" opacity="1" transform="translate(145.88490332062648,0)"><line stroke="#000" y2="-300" x1="0.5" x2="0.5" style="stroke: #ccc; fill: none;"></line></g><g class="tick" opacity="1" transform="translate(178.87622284480778,0)"><line stroke="#000" y2="-300" x1="0.5" x2="0.5" style="stroke: #ccc; fill: none;"></line></g><g class="tick" opacity="1" transform="translate(211.8713085013549,0)"><line stroke="#000" y2="-300" x1="0.5" x2="0.5" style="stroke: #ccc; fill: none;"></line></g><g class="tick" opacity="1" transform="translate(244.86262802553622,0)"><line stroke="#000" y2="-300" x1="0.5" x2="0.5" style="stroke: #ccc; fill: none;"></line></g><g class="tick" opacity="1" transform="translate(277.9443347264961,0)"><line stroke="#000" y2="-300" x1="0.5" x2="0.5" style="stroke: #ccc; fill: none;"></line></g><g class="tick" opacity="1" transform="translate(310.93565425067743,0)"><line stroke="#000" y2="-300" x1="0.5" x2="0.5" style="stroke: #ccc; fill: none;"></line></g><g class="tick" opacity="1" transform="translate(343.92697377485877,0)"><line stroke="#000" y2="-300" x1="0.5" x2="0.5" style="stroke: #ccc; fill: none;"></line></g><g class="tick" opacity="1" transform="translate(376.9182932990401,0)"><line stroke="#000" y2="-300" x1="0.5" x2="0.5" style="stroke: #ccc; fill: none;"></line></g><g class="tick" opacity="1" transform="translate(410,0)"><line stroke="#000" y2="-300" x1="0.5" x2="0.5" style="stroke: #ccc; fill: none;"></line></g></g><text x="205" y="360" class="axis-label x-axis-label" style="text-anchor: middle; font-weight: bold;">Year</text><g fill="none" font-size="10" font-family="sans-serif" text-anchor="end"><path class="domain" stroke="#000" d="M-6,300.5H0.5V0.5H-6"></path><g class="tick" opacity="1" transform="translate(0,300)"><line stroke="#000" x2="-6" y1="0.5" y2="0.5"></line><text fill="#000" x="-9" y="0.5" dy="0.32em" style="font-size: 12px;">0.00%</text></g><g class="tick" opacity="1" transform="translate(0,264.70588235294116)"><line stroke="#000" x2="-6" y1="0.5" y2="0.5"></line><text fill="#000" x="-9" y="0.5" dy="0.32em" style="font-size: 12px;">2.00%</text></g><g class="tick" opacity="1" transform="translate(0,229.41176470588235)"><line stroke="#000" x2="-6" y1="0.5" y2="0.5"></line><text fill="#000" x="-9" y="0.5" dy="0.32em" style="font-size: 12px;">4.00%</text></g><g class="tick" opacity="1" transform="translate(0,194.11764705882354)"><line stroke="#000" x2="-6" y1="0.5" y2="0.5"></line><text fill="#000" x="-9" y="0.5" dy="0.32em" style="font-size: 12px;">6.00%</text></g><g class="tick" opacity="1" transform="translate(0,158.8235294117647)"><line stroke="#000" x2="-6" y1="0.5" y2="0.5"></line><text fill="#000" x="-9" y="0.5" dy="0.32em" style="font-size: 12px;">8.00%</text></g><g class="tick" opacity="1" transform="translate(0,123.52941176470588)"><line stroke="#000" x2="-6" y1="0.5" y2="0.5"></line><text fill="#000" x="-9" y="0.5" dy="0.32em" style="font-size: 12px;">10.00%</text></g><g class="tick" opacity="1" transform="translate(0,88.23529411764707)"><line stroke="#000" x2="-6" y1="0.5" y2="0.5"></line><text fill="#000" x="-9" y="0.5" dy="0.32em" style="font-size: 12px;">12.00%</text></g><g class="tick" opacity="1" transform="translate(0,52.9411764705882)"><line stroke="#000" x2="-6" y1="0.5" y2="0.5"></line><text fill="#000" x="-9" y="0.5" dy="0.32em" style="font-size: 12px;">14.00%</text></g><g class="tick" opacity="1" transform="translate(0,17.64705882352939)"><line stroke="#000" x2="-6" y1="0.5" y2="0.5"></line><text fill="#000" x="-9" y="0.5" dy="0.32em" style="font-size: 12px;">16.00%</text></g></g><g class="grid-lines" fill="none" font-size="10" font-family="sans-serif" text-anchor="end"><path class="domain" stroke="#000" d="M410,300.5H0.5V0.5H410"></path><g class="tick" opacity="1" transform="translate(0,300)"><line stroke="#000" x2="410" y1="0.5" y2="0.5" style="stroke: #ccc; fill: none;"></line></g><g class="tick" opacity="1" transform="translate(0,264.70588235294116)"><line stroke="#000" x2="410" y1="0.5" y2="0.5" style="stroke: #ccc; fill: none;"></line></g><g class="tick" opacity="1" transform="translate(0,229.41176470588235)"><line stroke="#000" x2="410" y1="0.5" y2="0.5" style="stroke: #ccc; fill: none;"></line></g><g class="tick" opacity="1" transform="translate(0,194.11764705882354)"><line stroke="#000" x2="410" y1="0.5" y2="0.5" style="stroke: #ccc; fill: none;"></line></g><g class="tick" opacity="1" transform="translate(0,158.8235294117647)"><line stroke="#000" x2="410" y1="0.5" y2="0.5" style="stroke: #ccc; fill: none;"></line></g><g class="tick" opacity="1" transform="translate(0,123.52941176470588)"><line stroke="#000" x2="410" y1="0.5" y2="0.5" style="stroke: #ccc; fill: none;"></line></g><g class="tick" opacity="1" transform="translate(0,88.23529411764707)"><line stroke="#000" x2="410" y1="0.5" y2="0.5" style="stroke: #ccc; fill: none;"></line></g><g class="tick" opacity="1" transform="translate(0,52.9411764705882)"><line stroke="#000" x2="410" y1="0.5" y2="0.5" style="stroke: #ccc; fill: none;"></line></g><g class="tick" opacity="1" transform="translate(0,17.64705882352939)"><line stroke="#000" x2="410" y1="0.5" y2="0.5" style="stroke: #ccc; fill: none;"></line></g></g><g class="lines"><path class="line" d="M2.802002480135948,155.83878308982355L5.513617783493317,159.1021478877706L8.31938639599504,165.40974163729413L11.031001699352409,177.48173296923528L13.833004179488356,170.88065154229415L16.635006659624306,177.63949570185883L19.165847609424517,174.5841244404353L21.96408395719469,171.83093492121176L24.675699260552058,174.42814614594707L27.477701740688012,166.86455746425884L30.189317044045378,175.83327228774704L32.99131952418133,180.73517623118823L35.793322004317275,177.8869699356L38.50493730767464,177.32986704204706L41.31070592017637,172.20457139332945L44.02232122353374,173.2393702494353L46.824323703669684,152.58850161308825L49.62632618380563,158.07282711628238L52.15716713360584,148.75795831747058L54.955403481376024,161.95709275745295L57.667018784733386,157.26492805141766L60.46902126486933,163.30236836348826L63.180636568226696,168.0184575691059L65.98263904836266,168.67706991811764L68.7846415284986,163.01939446567062L71.49625683185597,160.0896761201294L74.3020254443577,157.26212690133534L77.01364074771506,155.14750519062352L79.81564322785101,154.94413878534706L82.61764570798695,152.98750768030592L85.14848665778717,151.0443231395118L87.94672300555735,153.67751257328825L90.65833830891471,148.72436747865888L93.46034078905066,158.62064038635884L96.17195609240802,156.42981423224123L98.97395857254398,156.47432760148234L101.77596105267992,155.43462881202353L104.48757635603728,150.5349495738706L107.28957883617325,143.3016313825059L110.00119413953061,142.9024984523118L112.80319661966656,145.46940948326468L115.60519909980252,143.38306658802355L118.22642722638129,135.82840026776472L121.02842970651724,134.80218490529998L123.74004500987462,139.5721925133706L126.54204749001057,149.6076898735059L129.25366279336794,147.02290228674707L132.0556652735039,146.41063289807644L134.85766775363982,144.21542811407647L137.5692830569972,140.27602119095297L140.37128553713313,136.87502169215296L143.0829008404905,137.14655109241767L145.88490332062648,145.55239242924708L148.68690580076242,141.23689224342354L151.21774675056264,137.49886153708238L154.01974923069855,132.22034228991174L156.73136453405593,137.36133766621765L159.5333670141919,143.8947511758706L162.24498231754924,147.54674590159414L165.0469847976852,143.20456293116473L167.84898727782115,126.08902512072356L170.56060258117853,120.02391893225297L173.36260506131447,111.60083124045883L176.07422036467185,113.1497921162647L178.87622284480778,124.86318263135297L181.67822532494372,118.24069077172942L184.20906627474395,112.70615871783528L187.01106875487991,109.80612676752352L189.72268405823726,119.49631858935882L192.52468653837323,126.6733107780706L195.23630184173058,126.35608059160589L198.03830432186652,129.44944648810585L200.8403068020025,121.76009118806473L203.55192210535984,116.45023355429998L206.35769071786157,110.18421509205885L209.06930602121895,113.06341998252356L211.8713085013549,123.33446607785294L214.67331098149086,123.24768451034123L217.20415193129102,115.08770261920591L220.006154411427,114.5297616733412L222.71776971478437,122.61760636459417L225.5197721949203,131.1600677735824L228.23138749827768,130.07563374882355L231.03338997841362,132.6750504944118L233.8353924585496,130.64055448238827L236.54700776190694,123.20225509851178L239.3490102420429,122.69271878130004L242.06062554540028,129.460764325553L244.86262802553622,136.6805587156588L247.6646305056722,131.47787534752942L250.28585863225095,124.33931369615294L253.08786111238692,123.78386897680588L255.7994764157443,139.89773353286466L258.60147889588023,146.32943604979417L261.3130941992376,149.64150613628826L264.11509667937355,151.25234415142944L266.91709915950946,147.55071797936478L269.6287144628668,144.14807302231765L272.4307169430028,140.85830899057058L275.1423322463601,148.01057025534706L277.9443347264961,153.08036208382944L280.74633720663206,151.79549212981766L283.2771781564323,146.9064890431412L286.0791806365682,141.02385587915293L288.7907959399256,143.88997269942354L291.5927984200615,153.99761084581766L294.3044137234189,159.75362390541179L297.10641620355483,161.93625390444706L299.9084186836908,159.84194327934708L302.62003398704815,153.26267079712943L305.4220364671841,150.46185386327647L308.1336517705415,153.11954325058235L310.93565425067743,162.8112870358059L313.7376567308134,159.85325483382354L316.26849768061356,160.14257027768824L319.07050016074953,151.8451731502765L321.78211546410694,156.61831096131175L324.58411794424285,163.53119567064707L327.29573324760025,168.38165080554705L330.09773572773616,172.0068873874765L332.89973820787213,166.31724975785295L335.6113535112295,160.0731295021059L338.41335599136545,159.37214755316472L341.12497129472285,157.78115509681768L343.92697377485877,167.18315680028826L346.72897625499473,164.98557097706473L349.25981720479496,165.28054434240002L352.06181968493087,169.14225372801178L354.7734349882883,167.85313523421178L357.5754374684242,172.58125862576472L360.2870527717816,171.07519850830587L363.0890552519175,180.74788997068237L365.89105773205347,172.63150842142943L368.6026730354108,167.9662708038706L371.4046755155468,175.5709774048941L374.1162908189042,178.04360044122353L376.9182932990401,178.35584859317646L379.720295779176,178.1595466866706L382.34152390575485,174.86584266047646L385.14352638589077,177.22980485142352L387.85514168924817,184.3479457274118L390.6571441693841,188.69767782294707L393.36875947274143,189.00395194129413L396.1707619528774,188.7379082161059L398.97276443301337,187.07372686704707L401.6843797363707,187.00447230547059L404.4863822165067,187.3275432662294L407.19799751986403,195.45641458722355L410,197.97043643821766" data-legend="java" style="stroke: rgb(31, 119, 180); fill: none;"></path><path class="line" d="M2.802002480135948,259.3912065041824L5.513617783493317,262.9730709540353L8.31938639599504,263.6128633445294L11.031001699352409,272.39648682561176L13.833004179488356,263.99017301918826L16.635006659624306,266.3711196796588L19.165847609424517,262.3752373321412L21.96408395719469,261.73309530241767L24.675699260552058,266.8457151540529L27.477701740688012,268.38505574601174L30.189317044045378,270.22196176104706L32.99131952418133,271.1631584865706L35.793322004317275,269.04024767802355L38.50493730767464,261.9840163037647L41.31070592017637,255.3039884018647L44.02232122353374,259.8984030045706L46.824323703669684,261.1596212997176L49.62632618380563,258.89389121959414L52.15716713360584,262.0449474887118L54.955403481376024,257.93755590578826L57.667018784733386,259.6335919609059L60.46902126486933,263.22865573228233L63.180636568226696,262.4077340444647L65.98263904836266,261.81014344891764L68.7846415284986,260.0255666187529L71.49625683185597,259.8348891287294L74.3020254443577,257.29584517791176L77.01364074771506,262.53067179522355L79.81564322785101,267.5830527215294L82.61764570798695,264.93083819574707L85.14848665778717,262.95866967354704L87.94672300555735,262.17362712681177L90.65833830891471,267.7716363336882L93.46034078905066,268.45932932318823L96.17195609240802,270.8430728132471L98.97395857254398,269.9420948149412L101.77596105267992,266.76936937457646L104.48757635603728,262.70348310061763L107.28957883617325,264.28055820956473L110.00119413953061,265.83725698448825L112.80319661966656,266.03673143467057L115.60519909980252,265.63076864521764L118.22642722638129,263.7891760616471L121.02842970651724,263.3518333680706L123.74004500987462,267.3226965898235L126.54204749001057,268.7341946756294L129.25366279336794,270.38992010018825L132.0556652735039,270.94289067305294L134.85766775363982,266.0790578022L137.5692830569972,262.71964558842353L140.37128553713313,261.72606891940586L143.0829008404905,266.36935607131767L145.88490332062648,267.3000624087706L148.68690580076242,264.16370796045885L151.21774675056264,264.8979597385235L154.01974923069855,263.5082083304647L156.73136453405593,266.04620828105294L159.5333670141919,267.0846290017059L162.24498231754924,269.7272252088706L165.0469847976852,268.7363424632647L167.84898727782115,263.7201702432353L170.56060258117853,259.34356032061766L173.36260506131447,256.99790723149414L176.07422036467185,262.6192995408882L178.87622284480778,265.0585657417765L181.67822532494372,262.6363828339588L184.20906627474395,261.1361881410706L187.01106875487991,263.54171858701767L189.72268405823726,267.24299911655294L192.52468653837323,269.8628314039941L195.23630184173058,271.68351136411763L198.03830432186652,271.0206580383706L200.8403068020025,265.5599197851353L203.55192210535984,261.0481707013941L206.35769071786157,260.95769374422355L209.06930602121895,264.03665940525883L211.8713085013549,265.7193868692L214.67331098149086,264.51077571707646L217.20415193129102,263.4164641756412L220.006154411427,263.0496481474412L222.71776971478437,266.32233401835884L225.5197721949203,270.0638418038294L228.23138749827768,274.4351945781L231.03338997841362,274.7528020971353L233.8353924585496,269.1946852690588L236.54700776190694,264.9542931704294L239.3490102420429,263.9754424142824L242.06062554540028,268.2050719746176L244.86262802553622,270.1016817028765L247.6646305056722,269.08983167572944L250.28585863225095,269.53184147050587L253.08786111238692,269.6636472681706L255.7994764157443,274.44588217171764L258.60147889588023,277.7675911806706L261.3130941992376,276.3850077444353L264.11509667937355,278.2962224929059L266.91709915950946,273.9164677557L269.6287144628668,267.36308316430586L272.4307169430028,266.7731715856941L275.1423322463601,269.3149900292118L277.9443347264961,272.17964670331764L280.74633720663206,272.2700389837412L283.2771781564323,273.7518677743765L286.0791806365682,271.4681176623353L288.7907959399256,273.8116491606353L291.5927984200615,276.47085421406473L294.3044137234189,279.6368673625941L297.10641620355483,279.43027612081767L299.9084186836908,276.88713895981766L302.62003398704815,270.83027086028824L305.4220364671841,268.81683953811176L308.1336517705415,273.07986632481175L310.93565425067743,275.3510697658059L313.7376567308134,274.98873156974116L316.26849768061356,274.49374175814705L319.07050016074953,275.89705270928823L321.78211546410694,274.75046119092355L324.58411794424285,278.7546029771294L327.29573324760025,282.0439270939588L330.09773572773616,280.93241751044116L332.89973820787213,277.11004580454704L335.6113535112295,272.49064294404707L338.41335599136545,269.5462401638824L341.12497129472285,269.9666236148118L343.92697377485877,272.3739064176L346.72897625499473,274.6946463070765L349.25981720479496,273.3712034409353L352.06181968493087,271.4666731436294L354.7734349882883,274.8604367295706L357.5754374684242,276.9313526260412L360.2870527717816,279.034614590453L363.0890552519175,279.55049068893527L365.89105773205347,273.5329778749941L368.6026730354108,270.68236562075293L371.4046755155468,269.64620729082355L374.1162908189042,270.9193275139235L376.9182932990401,275.0222071909765L379.720295779176,277.2052715467412L382.34152390575485,274.7731824358941L385.14352638589077,272.19826805805883L387.85514168924817,271.6465931460882L390.6571441693841,276.3736507565118L393.36875947274143,279.9660405804706L396.1707619528774,279.5620437956294L398.97276443301337,276.04372203880587L401.6843797363707,273.6163153704882L404.4863822165067,268.35397215208235L407.19799751986403,268.95499486634117L410,271.01240351585295" data-legend="c" style="stroke: rgb(255, 127, 14); fill: none;"></path><path class="line" d="M2.802002480135948,204.31553032547646L5.513617783493317,200.8949192862L8.31938639599504,196.87969766364705L11.031001699352409,206.5613698428L13.833004179488356,204.3103351569L16.635006659624306,214.50971388441178L19.165847609424517,208.37673535508824L21.96408395719469,214.7767624639059L24.675699260552058,215.94007363014705L27.477701740688012,221.08859531821764L30.189317044045378,219.40150904696472L32.99131952418133,223.7728019616353L35.793322004317275,220.98251367300003L38.50493730767464,217.2564478570412L41.31070592017637,218.7050803541294L44.02232122353374,221.8702140793941L46.824323703669684,220.81625442162354L49.62632618380563,209.6538516477L52.15716713360584,217.0158350111647L54.955403481376024,211.61562380202355L57.667018784733386,217.2505725125647L60.46902126486933,209.95163006881765L63.180636568226696,221.51738885521766L65.98263904836266,226.4636192833765L68.7846415284986,220.45725955630587L71.49625683185597,218.39028026569412L74.3020254443577,214.0311346242706L77.01364074771506,219.96000550944706L79.81564322785101,222.39444905971766L82.61764570798695,226.22645839957062L85.14848665778717,226.58475070431177L87.94672300555735,222.77269906545882L90.65833830891471,231.43089110426473L93.46034078905066,231.81071311207057L96.17195609240802,232.28351992127648L98.97395857254398,234.75355927171768L101.77596105267992,231.58093830042355L104.48757635603728,224.08179776535883L107.28957883617325,227.18230054618238L110.00119413953061,225.6257489961353L112.80319661966656,230.7654283432941L115.60519909980252,227.1081127371706L118.22642722638129,230.65871794205296L121.02842970651724,227.1561132377647L123.74004500987462,234.39554659420588L126.54204749001057,237.04916791307647L129.25366279336794,234.0570798524294L132.0556652735039,235.31035789927057L134.85766775363982,234.18024836077058L137.5692830569972,230.06092040160001L140.37128553713313,224.85240361005881L143.0829008404905,225.55457847848825L145.88490332062648,232.01381613594708L148.68690580076242,229.75114457752943L151.21774675056264,226.70677681097646L154.01974923069855,226.26283793618825L156.73136453405593,227.30705404171766L159.5333670141919,230.75382784893532L162.24498231754924,234.12748146305296L165.0469847976852,235.0039554992647L167.84898727782115,229.9328478743294L170.56060258117853,223.45558671762353L173.36260506131447,218.3560266599647L176.07422036467185,225.01476255208235L178.87622284480778,227.98758136034118L181.67822532494372,227.71299185809414L184.20906627474395,226.1714997014118L187.01106875487991,226.13187874789412L189.72268405823726,231.86463774700587L192.52468653837323,238.29365911658823L195.23630184173058,237.3511384032L198.03830432186652,236.37285313715296L200.8403068020025,233.91630177974116L203.55192210535984,229.97458389732355L206.35769071786157,230.25812303645296L209.06930602121895,230.66650086478234L211.8713085013549,234.5387297424353L214.67331098149086,231.7547262900706L217.20415193129102,230.94333326809414L220.006154411427,233.1721161696706L222.71776971478437,234.78111583618235L225.5197721949203,238.40222945020588L228.23138749827768,239.0524160101059L231.03338997841362,242.48326945842354L233.8353924585496,240.9415260627353L236.54700776190694,232.85680048388824L239.3490102420429,229.3437150030706L242.06062554540028,232.4216434404L244.86262802553622,240.1250186476941L247.6646305056722,238.06661183668237L250.28585863225095,238.00728911738824L253.08786111238692,237.62188981702943L255.7994764157443,242.39543138121178L258.60147889588023,244.78036301050588L261.3130941992376,244.9351818183706L264.11509667937355,250.85106715946472L266.91709915950946,246.62047096131175L269.6287144628668,239.23935091279412L272.4307169430028,238.09295866605885L275.1423322463601,242.48752416901766L277.9443347264961,243.0110375868353L280.74633720663206,247.32221246708824L283.2771781564323,244.93540788310588L286.0791806365682,241.3234771464706L288.7907959399256,249.3393169419706L291.5927984200615,253.12124408904705L294.3044137234189,250.23004996785883L297.10641620355483,251.85361413658237L299.9084186836908,250.8344360787353L302.62003398704815,245.31982673809412L305.4220364671841,246.88443778224706L308.1336517705415,245.3524955653059L310.93565425067743,247.11905921401765L313.7376567308134,246.73633731873528L316.26849768061356,246.45640665968824L319.07050016074953,248.78260587065296L321.78211546410694,250.0639116779647L324.58411794424285,252.57270762321178L327.29573324760025,256.1978954902412L330.09773572773616,255.75602178511764L332.89973820787213,253.4689957479L335.6113535112295,251.74515597308823L338.41335599136545,247.74613726835292L341.12497129472285,251.47938209384117L343.92697377485877,253.05703805641764L346.72897625499473,254.0090050036941L349.25981720479496,250.4442172434L352.06181968493087,248.53129124002942L354.7734349882883,250.89342771614116L357.5754374684242,251.56757696613528L360.2870527717816,249.28183484862353L363.0890552519175,256.75686409775295L365.89105773205347,250.03555303888237L368.6026730354108,243.0231259077353L371.4046755155468,242.83249442477648L374.1162908189042,243.24708243146472L376.9182932990401,248.4341155726412L379.720295779176,252.09414211662354L382.34152390575485,251.65098045564707L385.14352638589077,245.43457473275294L387.85514168924817,244.40446203670587L390.6571441693841,247.26647259961766L393.36875947274143,249.8701419372L396.1707619528774,248.4757406612294L398.97276443301337,255.52023532761177L401.6843797363707,250.34823962888822L404.4863822165067,247.94803998795885L407.19799751986403,245.86175198675295L410,251.48140004080588" data-legend="c++" style="stroke: rgb(44, 160, 44); fill: none;"></path><path class="line" d="M2.802002480135948,231.34575849612355L5.513617783493317,237.67744616024117L8.31938639599504,236.49812444682354L11.031001699352409,234.90294486679414L13.833004179488356,229.21432764829413L16.635006659624306,236.1861608379L19.165847609424517,233.37281610898236L21.96408395719469,235.74836307328235L24.675699260552058,230.99764466435295L27.477701740688012,234.18801445134707L30.189317044045378,236.26840524504706L32.99131952418133,238.02799531357059L35.793322004317275,237.10963204281177L38.50493730767464,230.3856793397647L41.31070592017637,227.91264381998823L44.02232122353374,225.07457200616471L46.824323703669684,222.9125274064765L49.62632618380563,226.0010686530353L52.15716713360584,229.53147956685882L54.955403481376024,235.53974812228236L57.667018784733386,231.29849266842353L60.46902126486933,229.64373644442355L63.180636568226696,224.23173725108825L65.98263904836266,230.5056114001059L68.7846415284986,234.67168071510002L71.49625683185597,225.7334861313706L74.3020254443577,233.4977063928L77.01364074771506,236.64138103425884L79.81564322785101,235.5873927195706L82.61764570798695,235.52833973179412L85.14848665778717,234.1194736583294L87.94672300555735,238.01809812257648L90.65833830891471,237.89068360254706L93.46034078905066,237.93667576334119L96.17195609240802,235.57004516775882L98.97395857254398,236.74972092231175L101.77596105267992,238.97899840316472L104.48757635603728,236.74064361338822L107.28957883617325,237.10977483127058L110.00119413953061,238.2344421789353L112.80319661966656,235.8910985208706L115.60519909980252,235.82887700535883L118.22642722638129,233.27636786532355L121.02842970651724,232.47578725692352L123.74004500987462,232.87016744105296L126.54204749001057,228.58359951642353L129.25366279336794,228.5316942603353L132.0556652735039,226.4930281724647L134.85766775363982,229.5869269340647L137.5692830569972,227.4486951876L140.37128553713313,223.41623358827647L143.0829008404905,224.56005359966468L145.88490332062648,225.9865924258765L148.68690580076242,222.10004992697645L151.21774675056264,222.13933154895884L154.01974923069855,218.02508694545295L156.73136453405593,216.99358980707646L159.5333670141919,215.0941922061353L162.24498231754924,213.6791165826706L165.0469847976852,217.49464762865296L167.84898727782115,214.9671518061353L170.56060258117853,208.8342057966706L173.36260506131447,204.79536670785882L176.07422036467185,209.53806535600592L178.87622284480778,207.91563743601176L181.67822532494372,206.81151599052353L184.20906627474395,202.7852540079353L187.01106875487991,202.13448148676474L189.72268405823726,207.10178582685882L192.52468653837323,203.02514395978238L195.23630184173058,200.94707017801764L198.03830432186652,201.35794777888236L200.8403068020025,206.48332649281764L203.55192210535984,201.9562428855706L206.35769071786157,198.28647066951177L209.06930602121895,196.95513415927059L211.8713085013549,196.57225827001764L214.67331098149086,192.48110605279413L217.20415193129102,191.4890384542059L220.006154411427,192.9279576999353L222.71776971478437,192.74841292450589L225.5197721949203,188.40177372917645L228.23138749827768,188.0043949708059L231.03338997841362,190.1136465744L233.8353924585496,190.40685280344707L236.54700776190694,180.92067972504708L239.3490102420429,177.37125191888822L242.06062554540028,180.00575659868824L244.86262802553622,178.7419007026059L247.6646305056722,174.89907797069998L250.28585863225095,175.92654541614706L253.08786111238692,176.47094916751766L255.7994764157443,176.75715807462353L258.60147889588023,175.3076993006647L261.3130941992376,170.88595897360588L264.11509667937355,173.48428929502944L266.91709915950946,171.8207348709706L269.6287144628668,162.82961460446472L272.4307169430028,155.83778325432354L275.1423322463601,156.7119623685L277.9443347264961,156.05859882012354L280.74633720663206,149.70381436732941L283.2771781564323,148.62753335516473L286.0791806365682,144.06022158501176L288.7907959399256,145.4439228948353L291.5927984200615,139.92400986915882L294.3044137234189,132.3356255875059L297.10641620355483,134.68036734132355L299.9084186836908,130.22413368822353L302.62003398704815,122.39921544930002L305.4220364671841,120.8994179073353L308.1336517705415,116.94064483567064L310.93565425067743,119.5148087711294L313.7376567308134,109.90041960382945L316.26849768061356,115.42687914451767L319.07050016074953,113.76886795725883L321.78211546410694,113.03444148984707L324.58411794424285,105.86182264438236L327.29573324760025,99.67093552739999L330.09773572773616,99.66686006251766L332.89973820787213,101.48905780565295L335.6113535112295,97.54884433025296L338.41335599136545,84.53579650392354L341.12497129472285,86.66501977612941L343.92697377485877,96.3942638212765L346.72897625499473,85.43194108755884L349.25981720479496,78.70665797036474L352.06181968493087,68.86501666083532L354.7734349882883,76.32354993146475L357.5754374684242,72.35196313886473L360.2870527717816,65.70859170176473L363.0890552519175,64.29317956845884L365.89105773205347,78.84929185695884L368.6026730354108,60.135826002317685L371.4046755155468,51.81169964497059L374.1162908189042,55.80551540172351L376.9182932990401,56.63905212727059L379.720295779176,58.0088351487353L382.34152390575485,47.808009538394145L385.14352638589077,39.991443557664695L387.85514168924817,28.68202696695886L390.6571441693841,28.162988671235325L393.36875947274143,26.951879832211773L396.1707619528774,33.24577576845883L398.97276443301337,36.52280573472359L401.6843797363707,22.95047119678236L404.4863822165067,15.891649097611833L407.19799751986403,14.465470392758789L410,20.158586433670564" data-legend="python" style="stroke: rgb(214, 39, 40); fill: none;"></path><path class="line" d="M2.802002480135948,90.73781101683534L5.513617783493317,56.81983893898237L8.31938639599504,56.66980429621765L11.031001699352409,64.26304524319414L13.833004179488356,33.235611961411735L16.635006659624306,36.64129869605296L19.165847609424517,24.694734275117696L21.96408395719469,22.857373620352973L24.675699260552058,54.31293500610005L27.477701740688012,55.456516856064695L30.189317044045378,57.710057871229424L32.99131952418133,57.49848561241768L35.793322004317275,65.2128887498647L38.50493730767464,68.57280028219412L41.31070592017637,83.27523982851176L44.02232122353374,88.37100810044117L46.824323703669684,97.8085377639L49.62632618380563,97.64367299218236L52.15716713360584,94.75023126735886L54.955403481376024,94.65718220670001L57.667018784733386,97.14256417268825L60.46902126486933,104.03486373785296L63.180636568226696,104.91715400085886L65.98263904836266,105.87287516655883L68.7846415284986,114.16820011584707L71.49625683185597,112.41446834077064L74.3020254443577,113.46234042210003L77.01364074771506,118.51989776918825L79.81564322785101,122.85978672517061L82.61764570798695,124.01268192128825L85.14848665778717,124.48837650432355L87.94672300555735,128.0215250956412L90.65833830891471,123.06169454830587L93.46034078905066,125.50829416051769L96.17195609240802,131.03393732754708L98.97395857254398,133.7081864624118L101.77596105267992,138.5940798193588L104.48757635603728,138.99203504025886L107.28957883617325,139.1002983108706L110.00119413953061,141.09638834775885L112.80319661966656,140.7696110118353L115.60519909980252,146.30901859288235L118.22642722638129,146.484086319L121.02842970651724,147.29245045025294L123.74004500987462,147.6330323485588L126.54204749001057,146.82189580050004L129.25366279336794,146.22465244951766L132.0556652735039,150.26821465355295L134.85766775363982,148.87570757908236L137.5692830569972,149.51927964049415L140.37128553713313,153.48672161082357L143.0829008404905,156.55287208316471L145.88490332062648,156.39239925111178L148.68690580076242,155.3815785717L151.21774675056264,154.73892836317057L154.01974923069855,156.48970642431175L156.73136453405593,156.7574411856706L159.5333670141919,156.87561807008825L162.24498231754924,157.85088284767056L165.0469847976852,155.9320041380647L167.84898727782115,153.04858152541766L170.56060258117853,154.11174871524707L173.36260506131447,153.59287485324708L176.07422036467185,154.33571358021175L178.87622284480778,156.34876800545297L181.67822532494372,157.7629695675706L184.20906627474395,162.18000358482354L187.01106875487991,160.65559656824118L189.72268405823726,160.38754113386472L192.52468653837323,163.72098203631177L195.23630184173058,163.18843197238238L198.03830432186652,164.60471378581767L200.8403068020025,168.5662761543706L203.55192210535984,171.26072997554118L206.35769071786157,173.7034926062118L209.06930602121895,173.43451798281177L211.8713085013549,174.43580268088238L214.67331098149086,175.57747079008237L217.20415193129102,176.00744533208825L220.006154411427,177.4479996889765L222.71776971478437,172.01342401367648L225.5197721949203,171.97695874404707L228.23138749827768,171.62297532635296L231.03338997841362,170.3944618293706L233.8353924585496,170.9666056431353L236.54700776190694,178.0390381594059L239.3490102420429,176.4957586663059L242.06062554540028,174.8556567148412L244.86262802553622,178.56562499694707L247.6646305056722,179.7037673475353L250.28585863225095,179.8352025635294L253.08786111238692,175.92955084392355L255.7994764157443,173.08246468185882L258.60147889588023,173.80433745591176L261.3130941992376,179.0321770592118L264.11509667937355,175.25462896551176L266.91709915950946,184.60860884375296L269.6287144628668,183.53955375254117L272.4307169430028,181.50383366966471L275.1423322463601,182.5531243367647L277.9443347264961,181.9873693248353L280.74633720663206,182.9371217295706L283.2771781564323,185.05189169248234L286.0791806365682,189.28713765621177L288.7907959399256,185.41762332058238L291.5927984200615,186.96235303427648L294.3044137234189,188.87349725424707L297.10641620355483,189.88381246935884L299.9084186836908,191.30263880057646L302.62003398704815,192.64703268578825L305.4220364671841,196.46306695101177L308.1336517705415,194.36201973981179L310.93565425067743,195.38071060358823L313.7376567308134,199.97816015576473L316.26849768061356,198.80837038778824L319.07050016074953,198.43033342958825L321.78211546410694,194.1686347686706L324.58411794424285,198.20202273404118L327.29573324760025,194.65175373954708L330.09773572773616,192.66904980255885L332.89973820787213,196.1271363136412L335.6113535112295,195.8961795757765L338.41335599136545,198.52698162817057L341.12497129472285,197.56161742554707L343.92697377485877,194.72603925742942L346.72897625499473,197.55393706198237L349.25981720479496,200.16129316575882L352.06181968493087,193.43085786194118L354.7734349882883,192.9340707918L357.5754374684242,199.4316514708765L360.2870527717816,199.58436837134118L363.0890552519175,199.09934956141763L365.89105773205347,197.06260576759414L368.6026730354108,201.11096979751767L371.4046755155468,203.00659618932355L374.1162908189042,202.68437320732943L376.9182932990401,204.83497262290587L379.720295779176,207.79157464164706L382.34152390575485,215.23446465151767L385.14352638589077,219.8537626217647L387.85514168924817,221.9170035772588L390.6571441693841,222.55951828644706L393.36875947274143,220.52956312840587L396.1707619528774,219.03619326649414L398.97276443301337,223.45294145557062L401.6843797363707,226.40285760730586L404.4863822165067,225.48956861200588L407.19799751986403,227.2855518320647L410,224.12803037802354" data-legend="c#" style="stroke: rgb(148, 103, 189); fill: none;"></path><path class="line" d="M2.802002480135948,273.0966743090294L5.513617783493317,270.54953828357645L8.31938639599504,268.2490622234118L11.031001699352409,268.7061775776882L13.833004179488356,272.40368399601175L16.635006659624306,271.3344182811529L19.165847609424517,265.8590116532294L21.96408395719469,268.6679273764412L24.675699260552058,270.29928649217646L27.477701740688012,272.6045801783118L30.189317044045378,275.4413596073647L32.99131952418133,270.18379405780587L35.793322004317275,274.11031164712944L38.50493730767464,279.0814110331412L41.31070592017637,279.31768407416473L44.02232122353374,276.5799133881L46.824323703669684,278.8395085492412L49.62632618380563,276.1933732932L52.15716713360584,277.1453447244L54.955403481376024,278.5250812852412L57.667018784733386,281.33779950098824L60.46902126486933,282.5383911103059L63.180636568226696,280.1239649722588L65.98263904836266,282.7169992250647L68.7846415284986,282.8556675411353L71.49625683185597,282.39299502665295L74.3020254443577,281.8328983364294L77.01364074771506,284.1858519489706L79.81564322785101,281.4855328471059L82.61764570798695,282.74340635608235L85.14848665778717,284.29826964824116L87.94672300555735,281.5313938518353L90.65833830891471,283.6387222789412L93.46034078905066,283.9617654202941L96.17195609240802,284.4812738361L98.97395857254398,284.82257257395884L101.77596105267992,285.2731824652765L104.48757635603728,284.3595251712353L107.28957883617325,285.93607809614116L110.00119413953061,285.26145999580586L112.80319661966656,284.7142476900353L115.60519909980252,284.74223076485293L118.22642722638129,286.11852313425885L121.02842970651724,286.3717629509471L123.74004500987462,286.02174103621763L126.54204749001057,287.7208688431941L129.25366279336794,287.2654205654118L132.0556652735039,286.16029922144116L134.85766775363982,284.98800781535294L137.5692830569972,285.81597168868234L140.37128553713313,284.4175552636235L143.0829008404905,285.59247511071175L145.88490332062648,284.9431855451647L148.68690580076242,284.9177362637294L151.21774675056264,285.6451720336588L154.01974923069855,283.87547989028826L156.73136453405593,284.73140428639414L159.5333670141919,284.21758745622355L162.24498231754924,283.679286486L165.0469847976852,283.52797340135294L167.84898727782115,283.1702492614059L170.56060258117853,282.45817298807646L173.36260506131447,283.75920961487645L176.07422036467185,283.4360968025647L178.87622284480778,283.29050363860586L181.67822532494372,283.88512165935884L184.20906627474395,283.2821897839588L187.01106875487991,283.3250713895471L189.72268405823726,285.3824134726059L192.52468653837323,285.3436591889118L195.23630184173058,284.9702492608059L198.03830432186652,285.67228510318233L200.8403068020025,286.08148656954705L203.55192210535984,285.5923191733941L206.35769071786157,285.91169562478234L209.06930602121895,285.1688184264706L211.8713085013549,285.84246897114707L214.67331098149086,287.1961270211647L217.20415193129102,287.1934322999647L220.006154411427,287.4406127289L222.71776971478437,287.2194640568118L225.5197721949203,286.92237750612355L228.23138749827768,287.57115310872354L231.03338997841362,287.94775929898236L233.8353924585496,287.6080886050059L236.54700776190694,288.3022471098L239.3490102420429,288.7280243732118L242.06062554540028,288.1784134402941L244.86262802553622,287.8173901206706L247.6646305056722,288.4970083743L250.28585863225095,288.55573357748824L253.08786111238692,289.1900801389941L255.7994764157443,288.5540800189588L258.60147889588023,289.3126391934882L261.3130941992376,289.27230466655294L264.11509667937355,289.23124874479413L266.91709915950946,290.0204840877L269.6287144628668,289.94929006085295L272.4307169430028,290.0035351288765L275.1423322463601,290.3999754520059L277.9443347264961,290.39116188125297L280.74633720663206,290.5772962932706L283.2771781564323,290.6798831102118L286.0791806365682,290.5623780683647L288.7907959399256,290.95276849415296L291.5927984200615,291.3623398683353L294.3044137234189,291.42136248949413L297.10641620355483,292.14100218261177L299.9084186836908,291.7947697873588L302.62003398704815,292.11685456224706L305.4220364671841,291.87532910004705L308.1336517705415,292.0499378060647L310.93565425067743,292.9780500277941L313.7376567308134,292.4954577770824L316.26849768061356,293.06526097014705L319.07050016074953,293.6813264031176L321.78211546410694,292.71300646907645L324.58411794424285,293.16041235908824L327.29573324760025,293.37109552132944L330.09773572773616,294.216840411L332.89973820787213,292.8214936546941L335.6113535112295,293.4686033549294L338.41335599136545,293.3734325619353L341.12497129472285,293.81073468324706L343.92697377485877,292.9746035683412L346.72897625499473,292.4702325619059L349.25981720479496,293.14724391405883L352.06181968493087,292.6902867558882L354.7734349882883,293.24608747958825L357.5754374684242,293.1015746405823L360.2870527717816,293.3830568713059L363.0890552519175,293.9389674746294L365.89105773205347,293.9570640322235L368.6026730354108,293.67954480352944L371.4046755155468,294.0799340460882L374.1162908189042,293.56147472632944L376.9182932990401,294.4184379617294L379.720295779176,294.04673758609414L382.34152390575485,294.22897265239413L385.14352638589077,294.4396536116118L387.85514168924817,295.35645492455296L390.6571441693841,295.33178609899414L393.36875947274143,295.3332024511941L396.1707619528774,294.7566489025941L398.97276443301337,295.1543221074706L401.6843797363707,294.72743111274707L404.4863822165067,295.1130018766235L407.19799751986403,295.4387808181412L410,295.0973195358706" data-legend="vb.net" style="stroke: rgb(140, 86, 75); fill: none;"></path><path class="line" d="M2.802002480135948,218.90931548804116L5.513617783493317,211.4042126787706L8.31938639599504,218.5152924317647L11.031001699352409,207.4470440623059L13.833004179488356,211.15332408471176L16.635006659624306,203.97536583225883L19.165847609424517,212.47017018238233L21.96408395719469,212.27019665401764L24.675699260552058,201.02064544946472L27.477701740688012,201.94329043134707L30.189317044045378,203.7433155080294L32.99131952418133,198.9078272981647L35.793322004317275,205.3408269598059L38.50493730767464,199.86511510939414L41.31070592017637,196.9585736759471L44.02232122353374,191.42881377497648L46.824323703669684,196.3729203719647L49.62632618380563,195.2111647789059L52.15716713360584,198.4804375034118L54.955403481376024,193.37081682781763L57.667018784733386,189.70160987115884L60.46902126486933,189.4629174482294L63.180636568226696,186.8437770887647L65.98263904836266,188.46889338619414L68.7846415284986,183.99291793058825L71.49625683185597,185.5127449126059L74.3020254443577,184.16880201596473L77.01364074771506,173.74188249578825L79.81564322785101,179.66705001345883L82.61764570798695,180.4868626072941L85.14848665778717,181.07783421502944L87.94672300555735,172.57217483121178L90.65833830891471,170.96299739078825L93.46034078905066,162.7284287530941L96.17195609240802,157.43158930738232L98.97395857254398,153.00991481945297L101.77596105267992,157.91219929138236L104.48757635603728,159.7762557714706L107.28957883617325,159.06879642352942L110.00119413953061,157.79438742765882L112.80319661966656,153.83474656831768L115.60519909980252,157.35627152835883L118.22642722638129,158.28995188196473L121.02842970651724,153.43475447237648L123.74004500987462,148.43517138600004L126.54204749001057,147.93080412081179L129.25366279336794,146.42421490882938L132.0556652735039,144.26892354682943L134.85766775363982,150.41574245975298L137.5692830569972,153.10074678910593L140.37128553713313,152.0864558395765L143.0829008404905,146.26739109952942L145.88490332062648,144.85521356726474L148.68690580076242,142.18604468115885L151.21774675056264,143.9014410561706L154.01974923069855,141.51103889602945L156.73136453405593,139.9609248447L159.5333670141919,136.45000636208826L162.24498231754924,131.24602101405884L165.0469847976852,124.72021066491178L167.84898727782115,110.55878678091179L170.56060258117853,110.24760595235296L173.36260506131447,114.19095729326472L176.07422036467185,107.04225252030002L178.87622284480778,102.01721946758826L181.67822532494372,100.56782186348823L184.20906627474395,106.9041951113471L187.01106875487991,104.78552326198235L189.72268405823726,101.02673287436474L192.52468653837323,100.51754638462944L195.23630184173058,98.70691687256473L198.03830432186652,99.89785969637649L200.8403068020025,106.5443595463588L203.55192210535984,106.09918342851176L206.35769071786157,108.78492526697647L209.06930602121895,105.9890373607941L211.8713085013549,101.98631545196471L214.67331098149086,103.06423942051765L217.20415193129102,107.89216385324119L220.006154411427,104.30309863537059L222.71776971478437,88.04339532423529L225.5197721949203,86.12854287755297L228.23138749827768,81.93764907137648L231.03338997841362,83.12803503550589L233.8353924585496,86.08749573395295L236.54700776190694,91.97020591849414L239.3490102420429,87.85206684391767L242.06062554540028,82.77063723492353L244.86262802553622,79.0677822525L247.6646305056722,87.83056969485884L250.28585863225095,87.48877581562945L253.08786111238692,88.0335330090706L255.7994764157443,83.89615616447648L258.60147889588023,86.18532532526473L261.3130941992376,76.72732970788238L264.11509667937355,77.89572797151177L266.91709915950946,87.8083407889059L269.6287144628668,92.3833671399706L272.4307169430028,91.51535243881767L275.1423322463601,82.64054008540589L277.9443347264961,84.28913044208824L280.74633720663206,84.61811311713532L283.2771781564323,90.50036494965886L286.0791806365682,88.21100319201176L288.7907959399256,86.27941422751766L291.5927984200615,84.37767121635883L294.3044137234189,85.87047939446472L297.10641620355483,85.6017279102706L299.9084186836908,91.34801621009998L302.62003398704815,91.88077840311175L305.4220364671841,95.40984158647063L308.1336517705415,91.8673717624412L310.93565425067743,89.62992215952352L313.7376567308134,99.56134440506474L316.26849768061356,102.52456053407647L319.07050016074953,103.01507684435296L321.78211546410694,107.74446659421179L324.58411794424285,101.49048416899416L327.29573324760025,100.84271157160586L330.09773572773616,98.4091632198706L332.89973820787213,101.98157968184117L335.6113535112295,105.84039702037057L338.41335599136545,106.71523778590591L341.12497129472285,106.61566676244709L343.92697377485877,108.17458169569412L346.72897625499473,108.04549386059998L349.25981720479496,107.19737700294709L352.06181968493087,111.27754587944119L354.7734349882883,109.17852021308823L357.5754374684242,104.77065017768825L360.2870527717816,107.95613107492946L363.0890552519175,100.85363858375294L365.89105773205347,104.94025144320003L368.6026730354108,112.6361942123294L371.4046755155468,110.30673516137648L374.1162908189042,107.40761275132942L376.9182932990401,105.12962905415299L379.720295779176,110.33487847101176L382.34152390575485,106.08967186092352L385.14352638589077,103.04625441067057L387.85514168924817,101.63727959698238L390.6571441693841,100.1139966308294L393.36875947274143,91.76551515361766L396.1707619528774,90.55893718588237L398.97276443301337,95.04771021661765L401.6843797363707,99.50692102817646L404.4863822165067,101.28379630702943L407.19799751986403,93.00016676613532L410,92.76210241288237" data-legend="javascript" style="stroke: rgb(227, 119, 194); fill: none;"></path><path class="line" d="M2.802002480135948,296.4467305691294L5.513617783493317,298.1669837106L8.31938639599504,297.611655123L11.031001699352409,297.4905897114353L13.833004179488356,297.53203678014705L16.635006659624306,296.2522030968353L19.165847609424517,297.90973540734706L21.96408395719469,295.9059425105294L24.675699260552058,296.7536429421706L27.477701740688012,296.9140791465353L30.189317044045378,298.2418870412471L32.99131952418133,297.38836152331766L35.793322004317275,296.6559152544353L38.50493730767464,296.37476444135297L41.31070592017637,296.20592862211765L44.02232122353374,297.07837953735884L46.824323703669684,296.0052156326647L49.62632618380563,297.2622379287353L52.15716713360584,295.8167818468765L54.955403481376024,295.5985290568235L57.667018784733386,296.3085757254706L60.46902126486933,297.10035326832354L63.180636568226696,297.16890543658235L65.98263904836266,297.60268053767646L68.7846415284986,296.60594433555883L71.49625683185597,296.5787336307706L74.3020254443577,295.8213118193294L77.01364074771506,296.8371703897941L79.81564322785101,297.00664303517647L82.61764570798695,296.8993728892588L85.14848665778717,296.6278163002941L87.94672300555735,297.07317976789415L90.65833830891471,297.21134640785294L93.46034078905066,297.49960708111763L96.17195609240802,297.5219248141588L98.97395857254398,297.3769446079059L101.77596105267992,297.31452150838237L104.48757635603728,296.3034775209706L107.28957883617325,296.59351372572354L110.00119413953061,296.13219817231766L112.80319661966656,297.4143503555294L115.60519909980252,296.68867870669413L118.22642722638129,296.54946146481177L121.02842970651724,296.22961248644117L123.74004500987462,297.0149907951353L126.54204749001057,297.2547757435941L129.25366279336794,297.4929966049588L132.0556652735039,297.6328475591471L134.85766775363982,296.98688827695884L137.5692830569972,296.2766925682941L140.37128553713313,296.373670695L143.0829008404905,296.54533463145884L145.88490332062648,296.69402281574116L148.68690580076242,296.2612653976941L151.21774675056264,296.2787555343L154.01974923069855,296.57276525197057L156.73136453405593,296.8062214664471L159.5333670141919,296.67386213717646L162.24498231754924,297.01170034251174L165.0469847976852,297.7802180780294L167.84898727782115,296.87903989468236L170.56060258117853,296.3709866607529L173.36260506131447,295.7997955900588L176.07422036467185,296.18412011281765L178.87622284480778,296.8243550794588L181.67822532494372,296.4710575095706L184.20906627474395,296.1518455143L187.01106875487991,296.6831392003235L189.72268405823726,296.6782760252647L192.52468653837323,297.0600530275412L195.23630184173058,297.8386640752941L198.03830432186652,298.0241357753471L200.8403068020025,296.9483473227353L203.55192210535984,296.0046785793L206.35769071786157,295.88693596872355L209.06930602121895,296.25808379011767L211.8713085013549,296.4526276654588L214.67331098149086,296.2261162566529L217.20415193129102,296.3649480327529L220.006154411427,295.87574355585883L222.71776971478437,296.45197061876473L225.5197721949203,297.4919628094059L228.23138749827768,297.64296120224117L231.03338997841362,297.86106911384115L233.8353924585496,297.43787511785297L236.54700776190694,295.8915209361353L239.3490102420429,295.9806900677647L242.06062554540028,296.3815665486882L244.86262802553622,297.57131249994706L247.6646305056722,296.7026641531588L250.28585863225095,296.1617691075353L253.08786111238692,296.28239817802944L255.7994764157443,296.9721276381176L258.60147889588023,297.22456274818234L261.3130941992376,297.98102363107057L264.11509667937355,297.47653240341174L266.91709915950946,296.5387764125647L269.6287144628668,295.9736308316471L272.4307169430028,295.81873753614707L275.1423322463601,296.5588953104294L277.9443347264961,296.91108554717647L280.74633720663206,296.9335597851L283.2771781564323,296.70795113647057L286.0791806365682,296.834215428L288.7907959399256,296.6728305631941L291.5927984200615,297.6061911875294L294.3044137234189,297.80339385545295L297.10641620355483,297.8347659074647L299.9084186836908,297.48797096431764L302.62003398704815,296.50799658328236L305.4220364671841,295.94818873512355L308.1336517705415,296.96674550138823L310.93565425067743,297.1823455087941L313.7376567308134,296.7124064255647L316.26849768061356,296.728120161L319.07050016074953,296.49570961699413L321.78211546410694,296.84513545381765L324.58411794424285,297.60095408211174L327.29573324760025,297.96892152337057L330.09773572773616,297.9674720667882L332.89973820787213,296.7616686641294L335.6113535112295,296.3689862719059L338.41335599136545,296.3014507322471L341.12497129472285,296.8315257814588L343.92697377485877,297.28969477764707L346.72897625499473,297.19907201578235L349.25981720479496,296.8710888610765L352.06181968493087,296.32201137402353L354.7734349882883,297.0686143574647L357.5754374684242,297.3266971669588L360.2870527717816,297.7356914470941L363.0890552519175,297.7594901134941L365.89105773205347,297.05633805861174L368.6026730354108,296.20772688211764L371.4046755155468,296.4838396152529L374.1162908189042,296.71366939157645L376.9182932990401,297.17895020625883L379.720295779176,296.9002750213412L382.34152390575485,297.02877799925295L385.14352638589077,296.7571351743706L387.85514168924817,296.95986707025884L390.6571441693841,296.91379192099413L393.36875947274143,297.43730770441766L396.1707619528774,297.2318339100353L398.97276443301337,296.7869911166118L401.6843797363707,295.9465824167294L404.4863822165067,295.4931017306647L407.19799751986403,296.4769275568765L410,296.42263762881174" data-legend="assembly" style="stroke: rgb(127, 127, 127); fill: none;"></path><path class="line" d="M2.802002480135948,238.95990727658824L5.513617783493317,224.72413104845296L8.31938639599504,229.1925989407059L11.031001699352409,228.99845007012354L13.833004179488356,228.65342691651176L16.635006659624306,222.20789130714707L19.165847609424517,221.44088905921765L21.96408395719469,219.20502872804119L24.675699260552058,218.28850214006474L27.477701740688012,200.4947969695059L30.189317044045378,188.3598271189059L32.99131952418133,181.00722190584708L35.793322004317275,177.7251593833941L38.50493730767464,184.33538981080588L41.31070592017637,175.53595113977647L44.02232122353374,166.68928566381175L46.824323703669684,163.9795699080706L49.62632618380563,174.34068869925883L52.15716713360584,172.32682157045295L54.955403481376024,170.44057304313532L57.667018784733386,163.45148169668826L60.46902126486933,169.42030432484117L63.180636568226696,165.50841496648235L65.98263904836266,156.57896937564706L68.7846415284986,163.65759296668236L71.49625683185597,174.27541472424707L74.3020254443577,169.54339338358236L77.01364074771506,162.34039188480003L79.81564322785101,157.13926722622946L82.61764570798695,156.28058750825295L85.14848665778717,157.36716757646468L87.94672300555735,157.91954949197648L90.65833830891471,156.79028324837648L93.46034078905066,156.0309477203647L96.17195609240802,146.71083850332354L98.97395857254398,152.11906581834705L101.77596105267992,159.69674306324117L104.48757635603728,158.79981587133534L107.28957883617325,158.63081961682943L110.00119413953061,157.40249561251767L112.80319661966656,157.74364044261176L115.60519909980252,157.6988220069706L118.22642722638129,155.47399514634708L121.02842970651724,156.8075374845177L123.74004500987462,155.75962128518825L126.54204749001057,156.51808196726472L129.25366279336794,153.18439321787648L132.0556652735039,150.6189039040588L134.85766775363982,152.38430878547646L137.5692830569972,160.1809409211706L140.37128553713313,158.47741243651765L143.0829008404905,154.6292515938706L145.88490332062648,154.82936922181767L148.68690580076242,154.28195074748825L151.21774675056264,155.39142054345885L154.01974923069855,160.89762581410588L156.73136453405593,160.07854643818237L159.5333670141919,156.97607189816472L162.24498231754924,155.65213393579413L165.0469847976852,150.20621151688232L167.84898727782115,147.03034787521767L170.56060258117853,152.053073601953L173.36260506131447,149.70268553070002L176.07422036467185,144.8279905093412L178.87622284480778,141.7127809745294L181.67822532494372,143.24362373590586L184.20906627474395,142.9902000898765L187.01106875487991,138.1353804829059L189.72268405823726,150.7825561466471L192.52468653837323,157.36375352758236L195.23630184173058,156.52514287725884L198.03830432186652,156.25857692428235L200.8403068020025,156.80624876392943L203.55192210535984,159.82654923442942L206.35769071786157,160.65405491931176L209.06930602121895,158.43273232674704L211.8713085013549,153.79073486002943L214.67331098149086,156.86573523806473L217.20415193129102,159.80816246260588L220.006154411427,159.2620815676059L222.71776971478437,160.06266913545883L225.5197721949203,163.55711960415883L228.23138749827768,159.62927405925885L231.03338997841362,160.00257843723531L233.8353924585496,164.46658454131767L236.54700776190694,166.93092809782942L239.3490102420429,166.69620350973528L242.06062554540028,157.67837746155882L244.86262802553622,156.4724032222059L247.6646305056722,158.72329040202354L250.28585863225095,166.13729598395295L253.08786111238692,168.84625611028235L255.7994764157443,163.93322807130002L258.60147889588023,167.8679855561647L261.3130941992376,169.67055528882355L264.11509667937355,173.48428929502944L266.91709915950946,173.53062077495295L269.6287144628668,175.12170385395882L272.4307169430028,178.26639986874704L275.1423322463601,173.9174858164059L277.9443347264961,172.58982502860002L280.74633720663206,172.49904046821177L283.2771781564323,175.37874007201765L286.0791806365682,175.8673967660647L288.7907959399256,175.33124720551766L291.5927984200615,182.23458062964707L294.3044137234189,183.03567011329415L297.10641620355483,182.79668050902353L299.9084186836908,182.2198438593L302.62003398704815,186.38442775579412L305.4220364671841,188.07529142347062L308.1336517705415,187.61058230740588L310.93565425067743,187.1052371766353L313.7376567308134,193.35650525318823L316.26849768061356,198.14987884785882L319.07050016074953,201.69370384877647L321.78211546410694,198.91686524728237L324.58411794424285,202.18120947285885L327.29573324760025,204.00364254954707L330.09773572773616,203.70758548408236L332.89973820787213,204.3891907865647L335.6113535112295,208.11764041672942L338.41335599136545,214.3999222356353L341.12497129472285,214.92109693651767L343.92697377485877,213.10381063367646L346.72897625499473,209.76404303648826L349.25981720479496,212.6879550142059L352.06181968493087,214.7932634978294L354.7734349882883,216.45550918755885L357.5754374684242,219.9182795231647L360.2870527717816,220.1743243835294L363.0890552519175,223.31757781455883L365.89105773205347,225.98051823148234L368.6026730354108,227.86563060167646L371.4046755155468,225.7061622106059L374.1162908189042,229.2432899612294L376.9182932990401,228.04506899465292L379.720295779176,231.41438846828822L382.34152390575485,237.09961116990002L385.14352638589077,235.70598025581177L387.85514168924817,237.89556124717058L390.6571441693841,238.8723324183353L393.36875947274143,238.1267168914412L396.1707619528774,241.28254994571176L398.97276443301337,240.67969266751766L401.6843797363707,242.77282938968824L404.4863822165067,239.2166033408294L407.19799751986403,237.58971041964708L410,236.55413309915295" data-legend="php" style="stroke: rgb(188, 189, 34); fill: none;"></path><path class="line" d="M2.802002480135948,283.3757751626471L5.513617783493317,284.4804620830412L8.31938639599504,286.3723851135882L11.031001699352409,280.2199424311765L13.833004179488356,283.3973383390765L16.635006659624306,283.2868516480235L19.165847609424517,287.8938842341941L21.96408395719469,286.5480968202882L24.675699260552058,286.39292892781765L27.477701740688012,284.4444397794176L30.189317044045378,285.7702732400647L32.99131952418133,286.2888979973824L35.793322004317275,286.5157873162235L38.50493730767464,286.1849131413176L41.31070592017637,285.05506030415296L44.02232122353374,287.65379739975884L46.824323703669684,288.05519921844706L49.62632618380563,286.1921565100588L52.15716713360584,286.6681177558941L54.955403481376024,287.0440573043294L57.667018784733386,290.19038178898234L60.46902126486933,286.9675218323294L63.180636568226696,287.24548119365295L65.98263904836266,284.7240573795706L68.7846415284986,286.6268405016353L71.49625683185597,286.12022830695884L74.3020254443577,288.15189021942354L77.01364074771506,287.2211481071647L79.81564322785101,289.35695301391763L82.61764570798695,289.6717041759529L85.14848665778717,289.3916721113471L87.94672300555735,289.77465336631764L90.65833830891471,289.7455206516353L93.46034078905066,289.83768877967645L96.17195609240802,288.41807413136473L98.97395857254398,289.8542197097647L101.77596105267992,291.33716615604703L104.48757635603728,290.30534670591175L107.28957883617325,290.15363253098826L110.00119413953061,290.8161005060647L112.80319661966656,291.40651735808825L115.60519909980252,291.25068985861765L118.22642722638129,291.9619638720353L121.02842970651724,291.75998947034117L123.74004500987462,291.5315157359647L126.54204749001057,289.97925530045296L129.25366279336794,291.6807399776118L132.0556652735039,290.4311933078647L134.85766775363982,291.1079725150765L137.5692830569972,291.87964379177646L140.37128553713313,292.3882988845412L143.0829008404905,292.73735121384703L145.88490332062648,292.5559289252471L148.68690580076242,291.3187277036118L151.21774675056264,291.3035026596L154.01974923069855,291.32868316764706L156.73136453405593,290.3762221596706L159.5333670141919,290.7359247444706L162.24498231754924,290.42544792014115L165.0469847976852,291.30758294101764L167.84898727782115,292.60769176418825L170.56060258117853,292.1674593363882L173.36260506131447,291.73959799378235L176.07422036467185,291.83529610731176L178.87622284480778,292.37845219067646L181.67822532494372,292.4822262371294L184.20906627474395,292.2697117395353L187.01106875487991,292.5415944313059L189.72268405823726,292.0258614220941L192.52468653837323,292.61216277398825L195.23630184173058,292.6992662082L198.03830432186652,292.61480257014705L200.8403068020025,292.7483375404412L203.55192210535984,293.39903417447647L206.35769071786157,292.9823495136353L209.06930602121895,293.5284184698353L211.8713085013549,293.62964367550586L214.67331098149086,293.9870153170059L217.20415193129102,293.8297323017294L220.006154411427,294.52276350065296L222.71776971478437,294.8877856227353L225.5197721949203,294.4087742329765L228.23138749827768,294.64226950201765L231.03338997841362,294.4622200344706L233.8353924585496,295.1648616037235L236.54700776190694,295.09265000705295L239.3490102420429,295.2842749804941L242.06062554540028,294.9835354425L244.86262802553622,295.5049695059471L247.6646305056722,295.2235735018588L250.28585863225095,295.8536542423059L253.08786111238692,295.5154172196L255.7994764157443,295.35976216985296L258.60147889588023,295.7212009034471L261.3130941992376,295.7310201154412L264.11509667937355,295.4812324433294L266.91709915950946,295.1605047445059L269.6287144628668,295.8316430020412L272.4307169430028,296.1840905669647L275.1423322463601,296.21916841432943L277.9443347264961,296.60923722931767L280.74633720663206,295.8369520261235L283.2771781564323,296.328438801L286.0791806365682,296.3065846659882L288.7907959399256,296.5965630689294L291.5927984200615,296.8182291201L294.3044137234189,296.6951961609L297.10641620355483,296.3812522805294L299.9084186836908,296.58846711748237L302.62003398704815,296.47663128312354L305.4220364671841,297.1584700220471L308.1336517705415,297.0401306908765L310.93565425067743,297.1934386367118L313.7376567308134,297.1654670241706L316.26849768061356,296.89274304598234L319.07050016074953,297.1308622489059L321.78211546410694,297.40812474993527L324.58411794424285,297.1165313487L327.29573324760025,297.0872995472647L330.09773572773616,297.39477082593527L332.89973820787213,297.45119929078237L335.6113535112295,296.90035413455297L338.41335599136545,297.1668164263059L341.12497129472285,297.0329118546706L343.92697377485877,296.8260899369647L346.72897625499473,296.8595655934588L349.25981720479496,297.38890161998825L352.06181968493087,297.53644158070585L354.7734349882883,297.3383018365765L357.5754374684242,296.83115810521764L360.2870527717816,297.1373508450353L363.0890552519175,297.4098151600941L365.89105773205347,297.3675622286294L368.6026730354108,297.5529980799L371.4046755155468,297.30906093005296L374.1162908189042,297.8538249087882L376.9182932990401,297.9175083067765L379.720295779176,297.8962155379412L382.34152390575485,298.0572779226L385.14352638589077,298.14923347420586L387.85514168924817,298.2775225959529L390.6571441693841,298.26238704795884L393.36875947274143,298.4084332059L396.1707619528774,298.05016038188825L398.97276443301337,298.25220689405296L401.6843797363707,298.1764830923647L404.4863822165067,298.34928063388236L407.19799751986403,298.5532210343294L410,298.53517473938825" data-legend="perl" style="stroke: rgb(23, 190, 207); fill: none;"></path><path class="line" d="M2.802002480135948,263.3251833741L5.513617783493317,269.57192959588235L8.31938639599504,277.52145998117646L11.031001699352409,276.2344084434353L13.833004179488356,276.5543494112471L16.635006659624306,270.9292510483765L19.165847609424517,271.2588618509294L21.96408395719469,270.08831466871766L24.675699260552058,272.23328644152355L27.477701740688012,272.7305361315176L30.189317044045378,272.52948501942353L32.99131952418133,273.6115695584647L35.793322004317275,274.2721221993353L38.50493730767464,275.8480928321647L41.31070592017637,269.7399673031294L44.02232122353374,272.9985721758176L46.824323703669684,272.8671081584647L49.62632618380563,272.7017347095353L52.15716713360584,276.3291070359706L54.955403481376024,273.27171274012943L57.667018784733386,273.4764329904L60.46902126486933,272.8197949216941L63.180636568226696,273.38187379545883L65.98263904836266,272.26357133698235L68.7846415284986,272.81854566165885L71.49625683185597,274.2431491227176L74.3020254443577,276.3037804388294L77.01364074771506,273.9321624062118L79.81564322785101,273.3036904765588L82.61764570798695,273.22768867138234L85.14848665778717,271.2134943551118L87.94672300555735,272.6583122620941L90.65833830891471,272.37820967264116L93.46034078905066,272.15633885325883L96.17195609240802,272.1787729134177L98.97395857254398,269.3152010734235L101.77596105267992,273.12788941604117L104.48757635603728,271.80529788391766L107.28957883617325,271.7586066498L110.00119413953061,271.2555872981647L112.80319661966656,270.9798851667529L115.60519909980252,270.75475288789414L118.22642722638129,270.98110312351764L121.02842970651724,272.96289390268237L123.74004500987462,273.9765056544353L126.54204749001057,274.42749227145885L129.25366279336794,274.29386071039414L132.0556652735039,274.18676624015296L134.85766775363982,273.7524489902647L137.5692830569972,273.26310663317645L140.37128553713313,274.47207786277056L143.0829008404905,275.05836290737057L145.88490332062648,274.0581994418824L148.68690580076242,274.2687089134765L151.21774675056264,273.87992240781176L154.01974923069855,274.5538142955L156.73136453405593,275.10762644604705L159.5333670141919,275.1432583203706L162.24498231754924,275.53392119885297L165.0469847976852,274.1716963283118L167.84898727782115,274.47842862677646L170.56060258117853,273.2755244594647L173.36260506131447,274.21874531228826L176.07422036467185,273.8644204374882L178.87622284480778,274.09981363323527L181.67822532494372,275.4569558178353L184.20906627474395,274.90629503142355L187.01106875487991,275.06916923512944L189.72268405823726,273.16607319199414L192.52468653837323,274.60363150351765L195.23630184173058,274.4524117653706L198.03830432186652,273.25565199741175L200.8403068020025,275.7356396880882L203.55192210535984,276.0382896890824L206.35769071786157,277.5371580353118L209.06930602121895,275.5126273559647L211.8713085013549,274.0711583715353L214.67331098149086,276.2424031755353L217.20415193129102,277.0152867916235L220.006154411427,276.59811049337645L222.71776971478437,276.06033939L225.5197721949203,275.66449628211177L228.23138749827768,276.5565294960882L231.03338997841362,277.3410061374706L233.8353924585496,278.40637161578826L236.54700776190694,279.1152314253L239.3490102420429,280.4904287695059L242.06062554540028,279.1220501715L244.86262802553622,278.96443245915884L247.6646305056722,278.80284098458236L250.28585863225095,280.0517632973647L253.08786111238692,280.02240185952354L255.7994764157443,280.0141675678941L258.60147889588023,279.63715655168824L261.3130941992376,280.86492545860585L264.11509667937355,281.5923797799177L266.91709915950946,280.0202422856647L269.6287144628668,281.5314401622882L272.4307169430028,282.1382962708765L275.1423322463601,282.14789955628237L277.9443347264961,281.6375606631353L280.74633720663206,283.4391920844L283.2771781564323,284.19286993406473L286.0791806365682,285.16660687958824L288.7907959399256,285.5091760918059L291.5927984200615,285.86655380302943L294.3044137234189,284.9304902785412L297.10641620355483,286.0262207175529L299.9084186836908,286.5732596520353L302.62003398704815,286.41882503495293L305.4220364671841,287.6235583182L308.1336517705415,287.48782519321765L310.93565425067743,287.0765059753235L313.7376567308134,288.01131954481764L316.26849768061356,289.05257814871766L319.07050016074953,289.16955253498236L321.78211546410694,288.9951526267588L324.58411794424285,288.53532864238235L327.29573324760025,289.4874949176706L330.09773572773616,290.09563736408825L332.89973820787213,290.37119732068237L335.6113535112295,289.98150175628825L338.41335599136545,290.08978465434706L341.12497129472285,289.0983005700706L343.92697377485877,289.07556798527645L346.72897625499473,290.4695697160412L349.25981720479496,290.63530116871766L352.06181968493087,291.1288764901412L354.7734349882883,291.08858764667644L357.5754374684242,290.80644635465296L360.2870527717816,291.07181964372353L363.0890552519175,289.9112300485765L365.89105773205347,290.59843653081174L368.6026730354108,290.06122916811177L371.4046755155468,291.81954522732354L374.1162908189042,291.01289180551765L376.9182932990401,290.6893249296529L379.720295779176,292.35699581071765L382.34152390575485,292.60051444042944L385.14352638589077,293.1038829886412L387.85514168924817,293.8800457210765L390.6571441693841,294.23389134818825L393.36875947274143,293.2111133923941L396.1707619528774,293.887808451L398.97276443301337,294.01354696644705L401.6843797363707,294.2481066684529L404.4863822165067,293.62518244794705L407.19799751986403,293.8042519103647L410,293.94140300366473" data-legend="ruby" style="stroke: rgb(31, 119, 180); fill: none;"></path><path class="line" d="M2.802002480135948,300L5.513617783493317,300L8.31938639599504,300L11.031001699352409,300L13.833004179488356,299.88781985364704L16.635006659624306,299.8987081918235L19.165847609424517,299.91290564198823L21.96408395719469,300L24.675699260552058,299.8618571464765L27.477701740688012,299.93702202340586L30.189317044045378,300L32.99131952418133,299.8911817301471L35.793322004317275,299.83818944781177L38.50493730767464,299.9510103303L41.31070592017637,299.8611925105765L44.02232122353374,299.95287708931767L46.824323703669684,300L49.62632618380563,299.92064457765883L52.15716713360584,300L54.955403481376024,299.9290085331882L57.667018784733386,299.96582014561767L60.46902126486933,299.93627150041766L63.180636568226696,299.9708134581177L65.98263904836266,299.9442483846L68.7846415284986,299.9419819544647L71.49625683185597,299.97218482627056L74.3020254443577,299.9745201940235L77.01364074771506,299.94898661920587L79.81564322785101,299.93348095634116L82.61764570798695,299.8930818237706L85.14848665778717,299.9473096297059L87.94672300555735,299.94442746395293L90.65833830891471,299.98235029372944L93.46034078905066,299.92856020231767L96.17195609240802,299.7890999841882L98.97395857254398,299.8680223702235L101.77596105267992,299.8960459938882L104.48757635603728,299.89538143928826L107.28957883617325,299.9351145471706L110.00119413953061,299.96592245085884L112.80319661966656,299.90874177727056L115.60519909980252,299.8715435705294L118.22642722638129,299.9471181833824L121.02842970651724,299.9314474997647L123.74004500987462,299.92110107828825L126.54204749001057,299.94590691121766L129.25366279336794,299.9251640777647L132.0556652735039,299.9373769195588L134.85766775363982,299.90625874639414L137.5692830569972,299.9527199056412L140.37128553713313,299.9640957494647L143.0829008404905,299.96074243900586L145.88490332062648,299.9437758982412L148.68690580076242,299.9305498216412L151.21774675056264,299.94902404842355L154.01974923069855,299.9380620226412L156.73136453405593,299.97877888018235L159.5333670141919,299.9665153906588L162.24498231754924,299.9300398073647L165.0469847976852,299.96888156184707L167.84898727782115,299.89348259027645L170.56060258117853,299.9138229022412L173.36260506131447,299.9499975665647L176.07422036467185,299.8934111763529L178.87622284480778,299.9532993394059L181.67822532494372,299.8873741758529L184.20906627474395,299.96602071095293L187.01106875487991,299.9637501552L189.72268405823726,299.90995326575296L192.52468653837323,273.83338709375295L195.23630184173058,283.6156792803353L198.03830432186652,281.6233830034765L200.8403068020025,279.72299074722355L203.55192210535984,274.7916676601118L206.35769071786157,272.77745249394707L209.06930602121895,271.60010706354706L211.8713085013549,267.3599134143L214.67331098149086,265.8878753560235L217.20415193129102,266.38975027194704L220.006154411427,262.4058162591L222.71776971478437,263.63269884225883L225.5197721949203,259.10767933958823L228.23138749827768,253.23091093205295L231.03338997841362,250.22834796402353L233.8353924585496,254.49985228736472L236.54700776190694,258.96276120227645L239.3490102420429,256.9317012459L242.06062554540028,254.88265790385884L244.86262802553622,252.96376587584118L247.6646305056722,255.12796960422352L250.28585863225095,255.19129531489412L253.08786111238692,256.9588332745941L255.7994764157443,258.37847279618825L258.60147889588023,253.6270692507L261.3130941992376,250.27894016798825L264.11509667937355,251.9171833146L266.91709915950946,249.43919196665294L269.6287144628668,251.95740365112354L272.4307169430028,255.67049892677647L275.1423322463601,256.75605380544704L277.9443347264961,256.2823019623588L280.74633720663206,258.6639797520353L283.2771781564323,259.1891851340647L286.0791806365682,260.8955918275059L288.7907959399256,260.8271082639353L291.5927984200615,258.03852635800587L294.3044137234189,256.91881462425886L297.10641620355483,257.97841983354704L299.9084186836908,258.51312745422354L302.62003398704815,259.1414690043L305.4220364671841,261.28152300395294L308.1336517705415,260.67776930225295L310.93565425067743,258.2898390276353L313.7376567308134,260.29330446137647L316.26849768061356,258.0828979115294L319.07050016074953,260.7957513399353L321.78211546410694,261.4299219958941L324.58411794424285,263.56449012201176L327.29573324760025,258.9208798215353L330.09773572773616,259.60771836575293L332.89973820787213,261.16465006321766L335.6113535112295,263.4795296066118L338.41335599136545,264.4370262715588L341.12497129472285,262.40793300021176L343.92697377485877,265.13453852101765L346.72897625499473,267.21337978644704L349.25981720479496,267.245588676L352.06181968493087,263.94877186408235L354.7734349882883,263.2169729573824L357.5754374684242,259.3527564360353L360.2870527717816,263.95877785217647L363.0890552519175,266.7290757313941L365.89105773205347,266.6212077659118L368.6026730354108,263.67767765989413L371.4046755155468,265.28090613287645L374.1162908189042,264.0381536277L376.9182932990401,264.7308238232294L379.720295779176,266.6639685506647L382.34152390575485,267.5070209404588L385.14352638589077,267.86908374988235L387.85514168924817,268.0587600279529L390.6571441693841,268.0832486619353L393.36875947274143,268.9239839524588L396.1707619528774,268.35804308842944L398.97276443301337,268.36180503421764L401.6843797363707,271.1675926659353L404.4863822165067,271.3839109885941L407.19799751986403,272.72103782278236L410,270.85296675278823" data-legend="swift" style="stroke: rgb(255, 127, 14); fill: none;"></path><path class="line" d="M2.802002480135948,299.2385851219588L5.513617783493317,300L8.31938639599504,299.8595091248824L11.031001699352409,299.8523876301L13.833004179488356,299.1025588291412L16.635006659624306,299.08837372627056L19.165847609424517,299.6516225679L21.96408395719469,298.9973736760588L24.675699260552058,299.8618571464765L27.477701740688012,299.6851101169941L30.189317044045378,297.1980074719941L32.99131952418133,297.4427706582529L35.793322004317275,292.5567145985647L38.50493730767464,296.4237541110529L41.31070592017637,295.65069866437057L44.02232122353374,296.2301671449706L46.824323703669684,296.2820818759412L49.62632618380563,295.15931923628824L52.15716713360584,295.2726233879471L54.955403481376024,294.3206826539471L57.667018784733386,295.2490002392647L60.46902126486933,294.3281635358294L63.180636568226696,293.1703491975176L65.98263904836266,292.1111464204765L68.7846415284986,293.1538706255647L71.49625683185597,294.04755282102354L74.3020254443577,293.8338869529L77.01364074771506,294.3120080397176L79.81564322785101,294.45674636142354L82.61764570798695,293.1144694506353L85.14848665778717,292.58822124335296L87.94672300555735,291.1824909463235L90.65833830891471,292.46357541868235L93.46034078905066,292.07018245725885L96.17195609240802,292.02094940158236L98.97395857254398,290.3326386177706L101.77596105267992,289.39669137499413L104.48757635603728,289.1719789647L107.28957883617325,290.15363253098826L110.00119413953061,289.53819241321764L112.80319661966656,289.50530438421174L115.60519909980252,288.39610253678825L118.22642722638129,288.2470162536706L121.02842970651724,288.4420484584059L123.74004500987462,288.4807574296588L126.54204749001057,286.8283328780647L129.25366279336794,286.03062784845883L132.0556652735039,286.3606930788706L134.85766775363982,285.8048958825L137.5692830569972,285.03585013155885L140.37128553713313,283.89095958898235L143.0829008404905,284.0876019388059L145.88490332062648,283.03156608488825L148.68690580076242,280.7970256803706L151.21774675056264,281.13889791352943L154.01974923069855,281.0056869386294L156.73136453405593,281.07076111669414L159.5333670141919,280.14362665108234L162.24498231754924,280.2512370461294L165.0469847976852,280.0219627021412L167.84898727782115,281.71096074799414L170.56060258117853,279.9015857543647L173.36260506131447,278.0889336614471L176.07422036467185,279.6308757977294L178.87622284480778,277.98530859485294L181.67822532494372,275.40064290575293L184.20906627474395,276.07858050388234L187.01106875487991,275.15979384714706L189.72268405823726,274.11656649802944L192.52468653837323,273.94187222188236L195.23630184173058,273.68548611467645L198.03830432186652,273.21246370835297L200.8403068020025,274.7999413062L203.55192210535984,271.5729304541647L206.35769071786157,271.26155518344706L209.06930602121895,273.1241702007L211.8713085013549,271.2801326909118L214.67331098149086,268.68412347783527L217.20415193129102,266.725293530453L220.006154411427,268.90012052408827L222.71776971478437,267.2570299306235L225.5197721949203,267.58409074695885L228.23138749827768,263.8829131911706L231.03338997841362,265.84547347531765L233.8353924585496,266.74222331959413L236.54700776190694,264.9542931704294L239.3490102420429,264.7613965842L242.06062554540028,267.27990433081766L244.86262802553622,265.33244455558236L247.6646305056722,266.07512461575885L250.28585863225095,264.35551173478234L253.08786111238692,262.72472542081766L255.7994764157443,264.3498495594353L258.60147889588023,262.7339727332647L261.3130941992376,262.37270906451175L264.11509667937355,262.94023750591765L266.91709915950946,265.7711930858471L269.6287144628668,261.59229208925296L272.4307169430028,263.83004994850586L275.1423322463601,265.4684048507294L277.9443347264961,264.82460935798235L280.74633720663206,262.61379843944115L283.2771781564323,259.3480507628647L286.0791806365682,257.57052249714707L288.7907959399256,258.7774193558647L291.5927984200615,255.57489812182942L294.3044137234189,254.60347301242942L297.10641620355483,254.11909054822942L299.9084186836908,253.64264321034705L302.62003398704815,252.46066007228825L305.4220364671841,252.47278007225293L308.1336517705415,254.51341338571763L310.93565425067743,253.3533971040353L313.7376567308134,247.5727568853706L316.26849768061356,247.45443289988825L319.07050016074953,248.10364960893529L321.78211546410694,249.75586093102942L324.58411794424285,248.09756427637058L327.29573324760025,250.80772568685882L330.09773572773616,253.59997005485295L332.89973820787213,253.25967395052353L335.6113535112295,251.41305105892943L338.41335599136545,249.35832541069414L341.12497129472285,253.88258923417058L343.92697377485877,252.6290951265706L346.72897625499473,247.93426508985883L349.25981720479496,249.92640448448824L352.06181968493087,246.2990528601L354.7734349882883,248.99388981977648L357.5754374684242,247.89015550798234L360.2870527717816,250.04442581202355L363.0890552519175,248.48122353425296L365.89105773205347,248.40162614629412L368.6026730354108,248.81011149128824L371.4046755155468,248.52532552390588L374.1162908189042,249.73926208242352L376.9182932990401,249.85069422444707L379.720295779176,244.5070896417353L382.34152390575485,245.30856426172943L385.14352638589077,243.59185501792942L387.85514168924817,245.92849734352941L390.6571441693841,246.35876434108235L393.36875947274143,249.73526339532353L396.1707619528774,248.7788245396941L398.97276443301337,243.70431666524118L401.6843797363707,239.6155401153L404.4863822165067,238.98854342841176L407.19799751986403,245.03344341861177L410,248.6314679010706" data-legend="r" style="stroke: rgb(44, 160, 44); fill: none;"></path><path class="line" d="M2.802002480135948,293.5279735366059L5.513617783493317,288.87970117761176L8.31938639599504,284.9674763624118L11.031001699352409,281.8436785002706L13.833004179488356,283.95823907085884L16.635006659624306,278.9313038956941L19.165847609424517,274.7426361720353L21.96408395719469,270.1718668623706L24.675699260552058,265.46428661880003L27.477701740688012,269.0148355120235L30.189317044045378,262.64009962641177L32.99131952418133,262.02242381814705L35.793322004317275,262.62176244054706L38.50493730767464,263.4047167254L41.31070592017637,265.02051266234116L44.02232122353374,263.19700675272355L46.824323703669684,260.88275505644117L49.62632618380563,259.96518942139414L52.15716713360584,261.5688088371353L54.955403481376024,259.0379236415823L57.667018784733386,255.3952900160647L60.46902126486933,254.37039428823527L63.180636568226696,243.61160106668825L65.98263904836266,247.81648798274117L68.7846415284986,252.1351124244706L71.49625683185597,251.68504322479413L74.3020254443577,253.34647525104705L77.01364074771506,253.2207297974294L79.81564322785101,251.61848224238824L82.61764570798695,247.95223181001177L85.14848665778717,246.4665837671647L87.94672300555735,240.12985449257647L90.65833830891471,238.1907286093059L93.46034078905066,240.07986969381176L96.17195609240802,234.72644510449413L98.97395857254398,236.53525727389413L101.77596105267992,242.80797096218822L104.48757635603728,242.96544797668236L107.28957883617325,241.95996243132353L110.00119413953061,243.3801520994647L112.80319661966656,242.62899730028823L115.60519909980252,244.83510000571766L118.22642722638129,249.23345603384118L121.02842970651724,246.33710280682942L123.74004500987462,249.1233453142941L126.54204749001057,248.59804237111766L129.25366279336794,246.24286252392355L132.0556652735039,247.2964154966294L134.85766775363982,254.57566682394707L137.5692830569972,251.20694260905884L140.37128553713313,253.85106996661764L143.0829008404905,251.25519508392352L145.88490332062648,254.15486741421176L148.68690580076242,254.84580902899413L151.21774675056264,254.93725879879412L154.01974923069855,258.03702032908234L156.73136453405593,259.3615555363941L159.5333670141919,262.29632986358826L162.24498231754924,262.26147322175296L165.0469847976852,263.0935323438176L167.84898727782115,257.80845400277644L170.56060258117853,257.1795576433941L173.36260506131447,259.58803328429997L176.07422036467185,257.3111761224L178.87622284480778,258.74463642914117L181.67822532494372,256.89246580164706L184.20906627474395,257.3220129444176L187.01106875487991,257.63299388375293L189.72268405823726,258.1782945348706L192.52468653837323,259.19874330827645L195.23630184173058,258.2772525868059L198.03830432186652,259.92126774905296L200.8403068020025,260.0307929831294L203.55192210535984,262.1926105968353L206.35769071786157,265.1979659414294L209.06930602121895,265.3332504324L211.8713085013549,268.0097323704706L214.67331098149086,266.57116906999414L217.20415193129102,269.31643313788237L220.006154411427,268.4055829866706L222.71776971478437,270.0706553808L225.5197721949203,270.4787050985294L228.23138749827768,269.8933621254706L231.03338997841362,270.78747817118824L233.8353924585496,271.2683116328118L236.54700776190694,273.01908540691767L239.3490102420429,276.6800433634588L242.06062554540028,276.7371735786L244.86262802553622,276.7903654228059L247.6646305056722,277.9737965430882L250.28585863225095,279.91091078754704L253.08786111238692,279.92314550020586L255.7994764157443,281.2421901047647L258.60147889588023,279.89735379405886L261.3130941992376,281.1763098737118L264.11509667937355,282.27704153094703L266.91709915950946,282.6006155589353L269.6287144628668,283.4584178499L272.4307169430028,284.1071431591941L275.1423322463601,283.57256073349413L277.9443347264961,285.26980208812944L280.74633720663206,286.4040945438353L283.2771781564323,287.2024910130706L286.0791806365682,288.63105037348237L288.7907959399256,288.7124108504647L291.5927984200615,287.7816008530059L294.3044137234189,289.04665314402354L297.10641620355483,290.0960588729824L299.9084186836908,290.21515327582944L302.62003398704815,291.02952415704704L305.4220364671841,291.4543616959059L308.1336517705415,292.16001559028825L310.93565425067743,292.58979055065885L313.7376567308134,293.0995385752059L316.26849768061356,293.81635288288237L319.07050016074953,293.9112954595059L321.78211546410694,293.79649530312355L324.58411794424285,294.4176046910647L327.29573324760025,294.3308359003941L330.09773572773616,294.6997061631L332.89973820787213,294.8777724877412L335.6113535112295,295.3726715294294L338.41335599136545,295.9576753195412L341.12497129472285,296.34819920574705L343.92697377485877,296.17228823858824L346.72897625499473,296.45943302428236L349.25981720479496,296.66176029898236L352.06181968493087,296.29887937007646L354.7734349882883,296.7168480803647L357.5754374684242,296.66163158410586L360.2870527717816,297.1138865077059L363.0890552519175,297.2285022213L365.89105773205347,296.75808156234706L368.6026730354108,296.23092121311174L371.4046755155468,296.65127582405296L374.1162908189042,296.60636063701764L376.9182932990401,296.74307985185294L379.720295779176,296.8107522782647L382.34152390575485,296.93354652487056L385.14352638589077,296.9583054489L387.85514168924817,297.18212221918236L390.6571441693841,297.52757560058825L393.36875947274143,296.8977935369294L396.1707619528774,297.3530674614353L398.97276443301337,296.9335126943647L401.6843797363707,296.89481120869414L404.4863822165067,297.1764010842706L407.19799751986403,297.73595658044115L410,297.87749809175295" data-legend="objective-c" style="stroke: rgb(214, 39, 40); fill: none;"></path></g></g><g transform="translate(20, 150)"><text transform="rotate(-90)" x="-50" y="0" dy="1em" class="axis-label y-axis-label" style="text-anchor: middle; font-weight: bold;">% of Stack Overflow questions that month</text></g><g class="legend" transform="translate(530, 30)" style="font-size: 12px;"><text class="legend-title" style="font-weight: bold;">Tag</text><g class="legend-items" transform="translate(0,20)"><text y="0em" x="1em">python</text><text y="1em" x="1em">c#</text><text y="2em" x="1em">javascript</text><text y="3em" x="1em">java</text><text y="4em" x="1em">php</text><text y="5em" x="1em">c++</text><text y="6em" x="1em">objective-c</text><text y="7em" x="1em">r</text><text y="8em" x="1em">swift</text><text y="9em" x="1em">c</text><text y="10em" x="1em">ruby</text><text y="11em" x="1em">vb.net</text><text y="12em" x="1em">perl</text><text y="13em" x="1em">assembly</text><circle cy="-0.25em" cx="0" r="0.4em" style="fill: rgb(214, 39, 40);"></circle><circle cy="0.75em" cx="0" r="0.4em" style="fill: rgb(148, 103, 189);"></circle><circle cy="1.75em" cx="0" r="0.4em" style="fill: rgb(227, 119, 194);"></circle><circle cy="2.75em" cx="0" r="0.4em" style="fill: rgb(31, 119, 180);"></circle><circle cy="3.75em" cx="0" r="0.4em" style="fill: rgb(188, 189, 34);"></circle><circle cy="4.75em" cx="0" r="0.4em" style="fill: rgb(44, 160, 44);"></circle><circle cy="5.75em" cx="0" r="0.4em" style="fill: rgb(214, 39, 40);"></circle><circle cy="6.75em" cx="0" r="0.4em" style="fill: rgb(44, 160, 44);"></circle><circle cy="7.75em" cx="0" r="0.4em" style="fill: rgb(255, 127, 14);"></circle><circle cy="8.75em" cx="0" r="0.4em" style="fill: rgb(255, 127, 14);"></circle><circle cy="9.75em" cx="0" r="0.4em" style="fill: rgb(31, 119, 180);"></circle><circle cy="10.75em" cx="0" r="0.4em" style="fill: rgb(140, 86, 75);"></circle><circle cy="11.75em" cx="0" r="0.4em" style="fill: rgb(23, 190, 207);"></circle><circle cy="12.75em" cx="0" r="0.4em" style="fill: rgb(127, 127, 127);"></circle></g><rect class="legend-box"></rect></g></svg>
        